<?xml version="1.0" standalone="no"?>
<!DOCTYPE svg PUBLIC "-//W3C//DTD SVG 20010904//EN"
 "http://www.w3.org/TR/2001/REC-SVG-20010904/DTD/svg10.dtd">
<svg version="1.0" xmlns="http://www.w3.org/2000/svg"
 width="500.000000pt" height="200.000000pt" viewBox="0 0 500.000000 200.000000"
 preserveAspectRatio="xMidYMid meet">

<g transform="translate(0.000000,200.000000) scale(0.100000,-0.100000)"
fill="#000000" stroke="none">
<path d="M619 1580 c-44 -12 -68 -30 -84 -60 -13 -25 -15 -104 -15 -540 l0
-510 33 -36 c40 -44 96 -55 151 -29 68 32 66 17 66 589 l0 514 -25 30 c-27 33
-86 52 -126 42z"/>
<path d="M1340 1575 c-305 -68 -515 -364 -471 -661 21 -140 81 -255 187 -354
116 -108 252 -160 419 -160 188 0 344 69 470 208 29 33 95 139 95 155 0 4 -64
7 -143 7 l-143 0 -30 -31 c-16 -17 -56 -45 -89 -62 -56 -30 -67 -32 -160 -32
-90 0 -105 3 -153 28 -72 38 -132 95 -168 159 -27 49 -29 61 -29 158 0 90 3
112 24 153 33 66 100 130 176 168 56 27 73 31 149 31 94 0 162 -24 236 -82 46
-36 87 -46 133 -31 69 23 104 96 77 161 -23 54 -144 135 -257 170 -89 28 -235
35 -323 15z"/>
<path d="M2307 1343 c-4 -3 -7 -80 -7 -170 l0 -163 100 0 c118 0 136 18 23 22
l-76 3 -1 65 -1 65 73 3 c52 2 72 6 69 15 -2 8 -22 11 -61 9 -31 -2 -62 1 -69
6 -7 6 -12 33 -11 64 l0 53 77 3 c59 2 77 6 77 17 0 12 -18 15 -93 15 -52 0
-97 -3 -100 -7z"/>
<path d="M2607 1343 c-4 -3 -7 -79 -7 -169 0 -161 4 -179 35 -168 6 3 10 54 9
132 -1 70 1 130 3 134 2 4 46 -54 96 -130 51 -75 101 -138 110 -140 15 -3 17
13 17 172 0 150 -2 176 -15 176 -13 0 -15 -22 -15 -135 0 -74 -3 -135 -7 -134
-5 0 -48 61 -97 135 -83 125 -108 149 -129 127z"/>
<path d="M3007 1344 c-7 -8 -10 -328 -3 -335 8 -8 196 3 196 11 0 5 -35 10
-77 12 l-78 3 0 65 0 65 68 3 c89 4 86 24 -3 26 l-65 1 -3 62 -3 62 78 3 c43
2 78 7 78 13 0 11 -177 20 -188 9z"/>
<path d="M3310 1345 c0 -3 -1 -80 -1 -172 0 -132 3 -168 13 -168 9 0 14 22 16
78 l3 77 43 0 c56 0 69 -12 105 -92 17 -38 35 -68 40 -68 24 0 20 26 -17 101
l-39 81 24 24 c42 42 27 114 -28 133 -32 11 -159 16 -159 6z m148 -41 c28 -19
29 -67 2 -94 -15 -15 -33 -20 -70 -20 l-50 0 0 58 c0 32 3 62 7 65 12 13 89 7
111 -9z"/>
<path d="M3693 1330 c-54 -33 -68 -64 -68 -155 0 -128 39 -170 161 -170 97 0
106 8 102 99 l-3 71 -52 3 c-42 2 -53 0 -53 -12 0 -9 12 -16 33 -18 31 -3 32
-5 35 -52 4 -57 -5 -66 -63 -66 -88 0 -131 60 -123 173 4 53 9 64 37 89 30 26
39 29 85 26 28 -3 59 -8 69 -12 24 -12 23 20 -2 34 -33 17 -123 12 -158 -10z"/>
<path d="M4012 1178 c2 -126 6 -172 16 -176 9 -3 12 36 12 172 0 151 -2 176
-15 176 -13 0 -15 -23 -13 -172z"/>
<path d="M4252 1333 c-6 -10 -23 -56 -40 -103 -17 -47 -42 -115 -56 -152 -17
-44 -22 -69 -15 -74 13 -8 20 -1 44 49 l20 42 72 3 73 3 22 -47 c23 -47 48
-69 48 -41 0 14 -11 46 -78 227 -31 84 -43 106 -60 108 -12 2 -25 -4 -30 -15z
m63 -122 c13 -40 22 -77 19 -82 -3 -5 -30 -9 -60 -9 -45 0 -54 3 -54 18 0 28
54 162 62 154 4 -4 19 -41 33 -81z"/>
<path d="M1560 1082 c34 -34 40 -45 40 -81 0 -50 -12 -78 -48 -108 l-27 -23
277 0 276 0 7 59 c9 78 0 113 -36 149 -40 39 -63 42 -317 42 l-213 0 41 -38z"/>
<path d="M3646 948 c-9 -12 -13 -24 -11 -27 6 -5 45 29 45 41 0 15 -19 8 -34
-14z"/>
<path d="M2290 755 c0 -104 2 -125 15 -125 12 0 15 13 15 55 l0 55 33 0 c43 0
52 -8 76 -63 11 -26 25 -47 31 -47 15 0 12 14 -16 74 -24 51 -25 57 -10 71 9
9 16 29 16 45 0 41 -32 60 -102 60 l-58 0 0 -125z m116 97 c6 -4 14 -17 18
-29 10 -32 -24 -63 -69 -63 l-35 0 0 50 0 50 38 0 c20 0 42 -4 48 -8z"/>
<path d="M2540 755 l0 -125 70 0 c40 0 70 4 70 10 0 6 -27 10 -61 10 l-60 0 3
48 3 47 53 3 c69 4 67 22 -3 22 l-55 0 0 45 0 45 60 0 c33 0 60 4 60 10 0 6
-30 10 -70 10 l-70 0 0 -125z"/>
<path d="M2750 754 c0 -96 3 -125 13 -121 8 2 12 32 13 95 0 51 3 94 5 97 3 2
35 -41 72 -95 37 -55 74 -100 82 -100 12 0 15 22 15 125 0 103 -3 125 -15 125
-11 0 -15 -20 -17 -99 l-3 -100 -65 99 c-91 138 -100 136 -100 -26z"/>
<path d="M3058 851 c-31 -28 -33 -33 -32 -95 1 -73 15 -99 72 -123 55 -23 122
5 141 59 23 65 4 155 -37 177 -12 6 -41 11 -66 11 -36 0 -52 -6 -78 -29z m141
-17 c31 -39 29 -123 -3 -160 -30 -36 -86 -39 -119 -6 -18 19 -22 34 -22 88 0
57 3 68 24 85 36 29 94 25 120 -7z"/>
<path d="M3300 877 c0 -9 72 -212 82 -230 20 -39 41 -13 84 111 31 88 40 122
30 122 -8 0 -27 -37 -46 -92 -17 -51 -36 -100 -40 -108 -10 -17 -7 -23 -55
109 -16 47 -36 86 -42 89 -7 2 -13 1 -13 -1z"/>
<path d="M3612 828 c-12 -29 -30 -78 -41 -108 -10 -30 -22 -63 -26 -72 -12
-31 12 -20 32 15 18 30 23 32 69 30 27 -1 52 -2 56 -2 3 -1 11 -14 17 -31 13
-38 36 -41 26 -3 -3 15 -22 66 -41 115 -19 48 -34 92 -34 98 0 5 -8 10 -18 10
-13 0 -25 -16 -40 -52z m58 -34 c31 -71 28 -84 -19 -84 -22 0 -42 4 -45 9 -5
7 3 36 29 109 7 20 13 14 35 -34z"/>
<path d="M3790 875 c0 -3 19 -60 42 -126 31 -87 46 -119 58 -119 12 0 29 31
58 110 43 112 49 140 33 140 -5 0 -23 -42 -41 -92 -17 -51 -36 -100 -40 -108
-10 -17 -16 -5 -57 114 -16 44 -34 81 -40 84 -7 2 -13 1 -13 -3z"/>
<path d="M4060 755 l0 -125 76 0 c47 0 73 4 69 10 -3 6 -31 10 -61 10 l-54 0
0 50 0 50 50 0 c28 0 50 5 50 10 0 6 -22 10 -50 10 l-50 0 0 45 0 45 60 0 c33
0 60 4 60 10 0 6 -32 10 -75 10 l-75 0 0 -125z"/>
<path d="M4280 755 l0 -125 65 0 c37 0 65 4 65 10 0 6 -25 10 -55 10 l-55 0 0
115 c0 70 -4 115 -10 115 -6 0 -10 -48 -10 -125z"/>
</g>
</svg>
